<?xml version="1.0" encoding="UTF-8" standalone="no"?>
<!-- Created with Inkscape (http://www.inkscape.org/) -->

<svg
   width="210mm"
   height="297mm"
   viewBox="0 0 210 297"
   version="1.1"
   id="svg5"
   inkscape:version="1.2.1 (9c6d41e, 2022-07-14)"
   sodipodi:docname="dibujo.svg"
   xmlns:inkscape="http://www.inkscape.org/namespaces/inkscape"
   xmlns:sodipodi="http://sodipodi.sourceforge.net/DTD/sodipodi-0.dtd"
   xmlns="http://www.w3.org/2000/svg"
   xmlns:svg="http://www.w3.org/2000/svg">
  <sodipodi:namedview
     id="namedview7"
     pagecolor="#ffffff"
     bordercolor="#666666"
     borderopacity="1.0"
     inkscape:showpageshadow="2"
     inkscape:pageopacity="0.0"
     inkscape:pagecheckerboard="0"
     inkscape:deskcolor="#d1d1d1"
     inkscape:document-units="mm"
     showgrid="false"
     inkscape:zoom="1.7183239"
     inkscape:cx="420.1769"
     inkscape:cy="747.53079"
     inkscape:window-width="1382"
     inkscape:window-height="836"
     inkscape:window-x="0"
     inkscape:window-y="0"
     inkscape:window-maximized="1"
     inkscape:current-layer="layer1" />
  <defs
     id="defs2" />
  <g
     inkscape:label="Capa 1"
     inkscape:groupmode="layer"
     id="layer1">
    <path
       style="fill:none;stroke:#000000;stroke-width:0.264583px;stroke-linecap:butt;stroke-linejoin:miter;stroke-opacity:1"
       d="M 75.581806,54.797436 78.74793,35.570933"
       id="path2444"
       sodipodi:nodetypes="cc" />
    <path
       style="fill:none;stroke:#000000;stroke-width:0.264583px;stroke-linecap:butt;stroke-linejoin:miter;stroke-opacity:1"
       d="M 21.269422,78.497224 84.93813,50.294942"
       id="path2446" />
    <path
       style="fill:none;stroke:#000000;stroke-width:0.264583px;stroke-linecap:butt;stroke-linejoin:miter;stroke-opacity:1"
       d="m 85.175256,50.561997 26.076674,32.241489 v 0"
       id="path2448" />
    <path
       style="fill:#b3b3b3;stroke:#000000;stroke-width:0.264583px;stroke-linecap:butt;stroke-linejoin:miter;stroke-opacity:1"
       d="M 106.02999,10.706159 85.091836,50.097071"
       id="path2450" />
    <path
       style="fill:none;stroke:#000000;stroke-width:0.264583px;stroke-linecap:butt;stroke-linejoin:miter;stroke-opacity:1"
       d="M 105.46611,38.772613 64.295442,33.973887"
       id="path2452" />
    <path
       style="fill:none;stroke:#000000;stroke-width:0.264583px;stroke-linecap:butt;stroke-linejoin:miter;stroke-opacity:1"
       d="m 64.420779,34.237109 c 1.797688,6.709062 13.094386,6.870468 13.094386,6.870468"
       id="path2454" />
    <path
       style="fill:none;stroke:#000000;stroke-width:0.264583px;stroke-linecap:butt;stroke-linejoin:miter;stroke-opacity:1"
       d="m 105.05781,38.759042 1.04296,-27.894 -41.460266,22.931229"
       id="path2552" />
    <path
       style="fill:none;stroke:#000000;stroke-width:0.264583px;stroke-linecap:butt;stroke-linejoin:miter;stroke-opacity:1"
       d="M 111.24579,82.53378 21.396867,78.453376 96.198088,64.372849"
       id="path2554" />
    <path
       style="fill:#ff0000;stroke:#ff5599;stroke-width:0.264583px;stroke-linecap:butt;stroke-linejoin:miter;stroke-opacity:1"
       d="M 125.06587,72.615461 148.5282,52.785435 171.282,61.37209 157.67904,82.817075 v 0 0 l -10.4434,-5.331473"
       id="path2558" />
    <path
       style="fill:none;stroke:#000000;stroke-width:0.264583px;stroke-linecap:butt;stroke-linejoin:miter;stroke-opacity:1"
       d="M 15.978782,27.011635 35.432283,27.394775 25.290214,12.638792 Z"
       id="path3237" />
    <path
       style="fill:none;stroke:#000000;stroke-width:0.264583px;stroke-linecap:butt;stroke-linejoin:miter;stroke-opacity:1"
       d="M 34.970952,27.133735 64.753582,14.517198 25.864021,12.562404 67.858996,4.4641465 64.553292,14.593585 51.272124,45.950274 Z"
       id="path3239" />
    <path
       style="fill:none;stroke:#000000;stroke-width:0.264583px;stroke-linecap:butt;stroke-linejoin:miter;stroke-opacity:1"
       d="m 16.149601,27.203505 0.434866,7.213489 -2.196586,-3.007376 -4.6530102,-0.403587 -1.6462367,5.359741 4.9735959,2.215232 2.366803,-1.471208 0.813194,3.462692 -6.3028547,8.137353 1.9463727,6.736519 3.711702,6.806891 16.911068,-1.25167 -1.046567,-8.370726 -7.09981,-3.918005 7.922627,12.496842 -11.361259,-5.354931 -5.430115,6.198801 0.845073,-21.445588 4.610906,15.218519 3.490359,-6.690807 -8.09104,-8.565002 0.659216,-6.238499 -1.676912,2.520783 -0.724777,-5.04457 -1.740668,6.877865 -2.855803,-7.728952 -0.3019405,0.02286"
       id="path3241" />
    <path
       style="fill:none;stroke:#000000;stroke-width:0.264583px;stroke-linecap:butt;stroke-linejoin:miter;stroke-opacity:1"
       d="M 146.15298,6.7587732 Z"
       id="path3243" />
    <path
       style="fill:#deaa87;stroke:#e9afaf;stroke-width:0.45756px;stroke-linecap:butt;stroke-linejoin:miter;stroke-opacity:1"
       d="m 140.75191,39.200772 -20.43663,-19.370707 34.9953,14.567157 z"
       id="path3245"
       sodipodi:nodetypes="cccc"
       inkscape:transform-center-x="-0.4779701"
       inkscape:transform-center-y="-0.8728451" />
    <path
       style="fill:#ffaaaa;stroke:#d4ff2a;stroke-width:0.264583px;stroke-linecap:butt;stroke-linejoin:miter;stroke-opacity:1"
       d="m 53.703285,106.3185 h 41.557104 v 14.71509 H 53.72554 Z"
       id="path3247" />
    <path
       id="rect3301"
       style="fill:#ccaaff;stroke:#9955ff;stroke-width:0.264583"
       d="m 95.499779,100.44871 h 32.840531 v 26.4673 H 95.499779 Z" />
    <ellipse
       style="fill:#ccaaff;stroke:#9955ff;stroke-width:0.264583"
       id="path3356"
       cx="127.86543"
       cy="113.89769"
       rx="7.68715"
       ry="7.7301555" />
    <path
       id="path3362"
       style="fill:#e580ff;stroke:#9955ff;stroke-width:0.264583"
       d="m 132.76716,129.68099 c 0,10.70235 40.37671,-30.7101 29.67436,-30.7101 -10.70234,-1e-5 -17.2936,41.23802 -17.2936,30.53567 1e-5,-10.70235 8.67597,-19.37831 19.37832,-19.37831 10.70234,0 -31.75908,8.85039 -31.75908,19.55274 z"
       sodipodi:nodetypes="sssss" />
    <path
       style="fill:none;stroke:#000000;stroke-width:0.264583px;stroke-linecap:butt;stroke-linejoin:miter;stroke-opacity:1"
       d="m 40.582111,143.33026 46.026062,-0.29713 -1.82608,9.12678 -16.236212,11.97296 -11.66741,-8.6883 -8.776722,2.06666 z"
       id="path3521" />
    <path
       style="fill:none;stroke:#000000;stroke-width:0.264583px;stroke-linecap:butt;stroke-linejoin:miter;stroke-opacity:1"
       d="m 140.94181,153.58 c 1.76533,1.37557 -18.20305,-1.21559 -18.20305,-1.21559 0,0 5.45877,-6.21439 -0.15097,-10.56791 -5.60974,-4.35353 -11.52005,0.20691 -11.52005,0.20691 0,0 -4.36369,5.94377 0.0884,9.60435 4.35847,3.58357 -17.809662,-2.24351 -17.809662,-2.24351 l 25.036392,27.44591 5.27974,-0.0126 17.2912,-22.88552"
       id="path3523"
       sodipodi:nodetypes="cczcscccc" />
    <path
       style="fill:#ff2a7f;stroke:#000000;stroke-width:0.264583px;stroke-linecap:butt;stroke-linejoin:miter;stroke-opacity:1"
       d="m 71.756555,196.21975 c 2.656914,4.73229 -5.466553,-9.11685 -0.313368,-10.81933 5.379218,-1.77715 7.973184,5.01049 4.088824,10.05787 -3.130488,4.06778 6.421795,-8.13345 9.217602,-4.62655 2.950257,3.70063 -1.227467,5.68292 -5.20396,6.45743 -4.276795,0.833 9.582282,1.49528 7.825188,5.48244 -1.697382,3.85167 -6.337959,-0.33959 -8.747247,-2.29763 -2.585601,-2.10133 4.568385,8.77123 1.430908,9.89246 -3.093684,1.10558 -6.479144,-5.85805 -5.090884,-8.43929 1.803423,-3.35317 -2.458926,9.95369 -5.936558,8.4038 -3.688596,-1.6439 5.720981,-14.73468 3.360441,-11.45809 -6.066564,8.42079 -11.795566,1.68251 -10.202216,-2.94302 1.294586,-3.75821 8.277095,-2.01517 9.57127,0.28991 z"
       id="path3525"
       sodipodi:nodetypes="sssssssssssss" />
    <ellipse
       style="fill:#aa0044;stroke:#ffaaee;stroke-width:0.264583"
       id="path3579"
       cx="74.937157"
       cy="199.12247"
       rx="2.7312975"
       ry="2.4185305" />
  </g>
</svg>
